<?xml version="1.0" encoding="UTF-8" standalone="no"?>
<!DOCTYPE svg PUBLIC "-//W3C//DTD SVG 1.1//EN"
 "http://www.w3.org/Graphics/SVG/1.1/DTD/svg11.dtd">
<!-- Generated by graphviz version 14.1.3 (20260303.0454)
 -->
<!-- Title: asteroid_validation_50a2 Pages: 1 -->
<svg width="1016pt" height="232pt"
 viewBox="0.00 0.00 1016.00 232.00" xmlns="http://www.w3.org/2000/svg" xmlns:xlink="http://www.w3.org/1999/xlink">
<g id="graph0" class="graph" transform="scale(1 1) rotate(0) translate(18 213.96)">
<title>asteroid_validation_50a2</title>
<polygon fill="white" stroke="none" points="-18,18 -18,-213.96 998.2,-213.96 998.2,18 -18,18"/>
<text xml:space="preserve" text-anchor="middle" x="490.1" y="-178.46" font-family="Helvetica,sans-Serif" font-size="15.00">Wenu 50A.2 — bounded asteroid numerical validation</text>
<!-- horizons -->
<g id="node1" class="node">
<title>horizons</title>
<path fill="#fff2cc" stroke="#555555" d="M440.48,-169.96C440.48,-169.96 315.16,-169.96 315.16,-169.96 309.16,-169.96 303.16,-163.96 303.16,-157.96 303.16,-157.96 303.16,-145 303.16,-145 303.16,-139 309.16,-133 315.16,-133 315.16,-133 440.48,-133 440.48,-133 446.48,-133 452.48,-139 452.48,-145 452.48,-145 452.48,-157.96 452.48,-157.96 452.48,-163.96 446.48,-169.96 440.48,-169.96"/>
<text xml:space="preserve" text-anchor="middle" x="377.82" y="-154.48" font-family="Helvetica,sans-Serif" font-size="10.00">Frozen direct Horizons oracle</text>
<text xml:space="preserve" text-anchor="middle" x="377.82" y="-142.48" font-family="Helvetica,sans-Serif" font-size="10.00">state + direction + parallax</text>
</g>
<!-- direction -->
<g id="node5" class="node">
<title>direction</title>
<path fill="#e2f0d9" stroke="#555555" d="M708,-112.96C708,-112.96 595.72,-112.96 595.72,-112.96 589.72,-112.96 583.72,-106.96 583.72,-100.96 583.72,-100.96 583.72,-88 583.72,-88 583.72,-82 589.72,-76 595.72,-76 595.72,-76 708,-76 708,-76 714,-76 720,-82 720,-88 720,-88 720,-100.96 720,-100.96 720,-106.96 714,-112.96 708,-112.96"/>
<text xml:space="preserve" text-anchor="middle" x="651.86" y="-97.48" font-family="Helvetica,sans-Serif" font-size="10.00">Existing direction realizers</text>
<text xml:space="preserve" text-anchor="middle" x="651.86" y="-85.48" font-family="Helvetica,sans-Serif" font-size="10.00">light time + apparent ICRS</text>
</g>
<!-- horizons&#45;&gt;direction -->
<g id="edge5" class="edge">
<title>horizons&#45;&gt;direction</title>
<path fill="none" stroke="#555555" d="M452.81,-138.53C486.71,-132.32 527.35,-124.51 563.72,-116.48 567.52,-115.64 571.41,-114.76 575.33,-113.85"/>
<polygon fill="#555555" stroke="#555555" points="575.68,-116.28 581.93,-112.29 574.55,-111.51 575.68,-116.28"/>
<text xml:space="preserve" text-anchor="middle" x="519.91" y="-136.27" font-family="Helvetica,sans-Serif" font-size="8.00">independent comparison</text>
</g>
<!-- spice -->
<g id="node2" class="node">
<title>spice</title>
<path fill="#fce4d6" stroke="#555555" d="M124.56,-36.96C124.56,-36.96 23.13,-36.96 23.13,-36.96 17.13,-36.96 11.13,-30.96 11.13,-24.96 11.13,-24.96 11.13,-12 11.13,-12 11.13,-6 17.13,0 23.13,0 23.13,0 124.56,0 124.56,0 130.56,0 136.56,-6 136.56,-12 136.56,-12 136.56,-24.96 136.56,-24.96 136.56,-30.96 130.56,-36.96 124.56,-36.96"/>
<text xml:space="preserve" text-anchor="middle" x="73.84" y="-21.48" font-family="Helvetica,sans-Serif" font-size="10.00">SpiceMinorBodyKernel</text>
<text xml:space="preserve" text-anchor="middle" x="73.84" y="-9.48" font-family="Helvetica,sans-Serif" font-size="10.00">exact type&#45;21 descriptor</text>
</g>
<!-- chain -->
<g id="node4" class="node">
<title>chain</title>
<path fill="#d9eaf7" stroke="#555555" d="M444.1,-36.96C444.1,-36.96 311.54,-36.96 311.54,-36.96 305.54,-36.96 299.54,-30.96 299.54,-24.96 299.54,-24.96 299.54,-12 299.54,-12 299.54,-6 305.54,0 311.54,0 311.54,0 444.1,0 444.1,0 450.1,0 456.1,-6 456.1,-12 456.1,-12 456.1,-24.96 456.1,-24.96 456.1,-30.96 450.1,-36.96 444.1,-36.96"/>
<text xml:space="preserve" text-anchor="middle" x="377.82" y="-21.48" font-family="Helvetica,sans-Serif" font-size="10.00">SkyfieldMinorBodyStateSource</text>
<text xml:space="preserve" text-anchor="middle" x="377.82" y="-9.48" font-family="Helvetica,sans-Serif" font-size="10.00">explicit BC + CO composition</text>
</g>
<!-- spice&#45;&gt;chain -->
<g id="edge1" class="edge">
<title>spice&#45;&gt;chain</title>
<path fill="none" stroke="#555555" d="M137.05,-18.48C181.44,-18.48 241.72,-18.48 290.73,-18.48"/>
<polygon fill="#555555" stroke="#555555" points="290.6,-20.93 297.6,-18.48 290.6,-16.03 290.6,-20.93"/>
<text xml:space="preserve" text-anchor="middle" x="223.61" y="-20.88" font-family="Helvetica,sans-Serif" font-size="8.00">BC state + segment identity</text>
</g>
<!-- planet -->
<g id="node3" class="node">
<title>planet</title>
<path fill="#fff2cc" stroke="#555555" d="M135.69,-107.96C135.69,-107.96 12,-107.96 12,-107.96 6,-107.96 0,-101.96 0,-95.96 0,-95.96 0,-83 0,-83 0,-77 6,-71 12,-71 12,-71 135.69,-71 135.69,-71 141.69,-71 147.69,-77 147.69,-83 147.69,-83 147.69,-95.96 147.69,-95.96 147.69,-101.96 141.69,-107.96 135.69,-107.96"/>
<text xml:space="preserve" text-anchor="middle" x="73.84" y="-92.48" font-family="Helvetica,sans-Serif" font-size="10.00">DE440 / Skyfield</text>
<text xml:space="preserve" text-anchor="middle" x="73.84" y="-80.48" font-family="Helvetica,sans-Serif" font-size="10.00">centre + observer + apparent</text>
</g>
<!-- planet&#45;&gt;chain -->
<g id="edge2" class="edge">
<title>planet&#45;&gt;chain</title>
<path fill="none" stroke="#555555" d="M141.92,-70.51C150.57,-68.21 159.33,-65.94 167.69,-63.88 208.11,-53.93 253.2,-43.99 291.14,-35.96"/>
<polygon fill="#555555" stroke="#555555" points="291.29,-38.44 297.64,-34.59 290.28,-33.64 291.29,-38.44"/>
<text xml:space="preserve" text-anchor="middle" x="223.61" y="-66.28" font-family="Helvetica,sans-Serif" font-size="8.00">CO state + dependency identity</text>
</g>
<!-- planet&#45;&gt;direction -->
<g id="edge4" class="edge">
<title>planet&#45;&gt;direction</title>
<path fill="none" stroke="#555555" d="M148.09,-90.12C257.8,-91.07 463.77,-92.86 574.99,-93.82"/>
<polygon fill="#555555" stroke="#555555" points="574.95,-96.27 581.98,-93.88 575,-91.37 574.95,-96.27"/>
<text xml:space="preserve" text-anchor="middle" x="377.82" y="-95.12" font-family="Helvetica,sans-Serif" font-size="8.00">observer + corrections</text>
</g>
<!-- chain&#45;&gt;direction -->
<g id="edge3" class="edge">
<title>chain&#45;&gt;direction</title>
<path fill="none" stroke="#555555" d="M456.25,-35.04C489.56,-42.68 528.78,-52.39 563.72,-62.88 573.57,-65.84 583.94,-69.29 593.94,-72.8"/>
<polygon fill="#555555" stroke="#555555" points="593.03,-75.08 600.45,-75.12 594.67,-70.46 593.03,-75.08"/>
<text xml:space="preserve" text-anchor="middle" x="519.91" y="-65.28" font-family="Helvetica,sans-Serif" font-size="8.00">resource&#45;chain state</text>
</g>
<!-- later -->
<g id="node6" class="node">
<title>later</title>
<path fill="#eeeeee" stroke="#555555" stroke-dasharray="5,2" d="M968.2,-112.96C968.2,-112.96 871.18,-112.96 871.18,-112.96 865.18,-112.96 859.18,-106.96 859.18,-100.96 859.18,-100.96 859.18,-88 859.18,-88 859.18,-82 865.18,-76 871.18,-76 871.18,-76 968.2,-76 968.2,-76 974.2,-76 980.2,-82 980.2,-88 980.2,-88 980.2,-100.96 980.2,-100.96 980.2,-106.96 974.2,-112.96 968.2,-112.96"/>
<text xml:space="preserve" text-anchor="middle" x="919.69" y="-97.48" font-family="Helvetica,sans-Serif" font-size="10.00">Body + chart + output</text>
<text xml:space="preserve" text-anchor="middle" x="919.69" y="-85.48" font-family="Helvetica,sans-Serif" font-size="10.00">not connected in 50A.2</text>
</g>
<!-- direction&#45;&gt;later -->
<g id="edge6" class="edge">
<title>direction&#45;&gt;later</title>
<path fill="none" stroke="#555555" stroke-dasharray="5,2" d="M720.28,-94.48C760.2,-94.48 810.63,-94.48 850.66,-94.48"/>
<polygon fill="#555555" stroke="#555555" points="850.52,-96.93 857.52,-94.48 850.52,-92.03 850.52,-96.93"/>
<text xml:space="preserve" text-anchor="middle" x="789.59" y="-96.88" font-family="Helvetica,sans-Serif" font-size="8.00">50A.3 next; still unconnected</text>
</g>
</g>
</svg>
